0
SECTION
2
HEADER
9
$INSUNITS
70
4
9
$ACADVER
1
AC1014
9
$HANDSEED
5
FFFF
0
ENDSEC
0
SECTION
2
TABLES
0
TABLE
2
VPORT
5
8
100
AcDbSymbolTable
0
ENDTAB
0
TABLE
2
LTYPE
5
5
100
AcDbSymbolTable
0
LTYPE
5
14
100
AcDbSymbolTableRecord
100
AcDbLinetypeTableRecord
2
BYBLOCK
70
0
0
LTYPE
5
15
100
AcDbSymbolTableRecord
100
AcDbLinetypeTableRecord
2
BYLAYER
70
0
0
ENDTAB
0
TABLE
2
LAYER
5
2
100
AcDbSymbolTable
70
2
0
LAYER
5
50
100
AcDbSymbolTableRecord
100
AcDbLayerTableRecord
2
0
70
0
6
CONTINUOUS
0
ENDTAB
0
TABLE
2
STYLE
5
3
100
AcDbSymbolTable
70
1
0
STYLE
5
11
100
AcDbSymbolTableRecord
100
AcDbTextStyleTableRecord
2
STANDARD
70
0
0
ENDTAB
0
TABLE
2
VIEW
5
6
100
AcDbSymbolTable
70
0
0
ENDTAB
0
TABLE
2
UCS
5
7
100
AcDbSymbolTable
70
0
0
ENDTAB
0
TABLE
2
APPID
5
9
100
AcDbSymbolTable
70
2
0
APPID
5
12
100
AcDbSymbolTableRecord
100
AcDbRegAppTableRecord
2
ACAD
70
0
0
ENDTAB
0
TABLE
2
DIMSTYLE
5
A
100
AcDbSymbolTable
70
1
0
ENDTAB
0
TABLE
2
BLOCK_RECORD
5
1
100
AcDbSymbolTable
70
1
0
BLOCK_RECORD
5
1F
100
AcDbSymbolTableRecord
100
AcDbBlockTableRecord
2
*MODEL_SPACE
0
BLOCK_RECORD
5
1B
100
AcDbSymbolTableRecord
100
AcDbBlockTableRecord
2
*PAPER_SPACE
0
ENDTAB
0
ENDSEC
0
SECTION
2
BLOCKS
0
BLOCK
5
20
100
AcDbEntity
100
AcDbBlockBegin
2
*MODEL_SPACE
0
ENDBLK
5
21
100
AcDbEntity
100
AcDbBlockEnd
0
BLOCK
5
1C
100
AcDbEntity
100
AcDbBlockBegin
2
*PAPER_SPACE
0
ENDBLK
5
1D
100
AcDbEntity
100
AcDbBlockEnd
0
ENDSEC
0
SECTION
2
ENTITIES
0
LWPOLYLINE
5
100
100
AcDbEntity
8
0
100
AcDbPolyline
90
8
70
1
43
0.0
10
73.543800000000019
20
76.562899999999999
42
-0.41421356237309503
10
76.543800000000019
20
73.562899999999999
10
76.543800000000019
20
2.8629990000000038
42
-0.41421356237309537
10
73.543800000000019
20
-0.13700099999999971
10
2.8437066000000009
20
-0.1370009999999966
42
-0.41421356237309503
10
-0.15629339999999914
20
2.8629990000000038
10
-0.15629339999998937
20
73.562900000000013
42
-0.41421356237309548
10
2.8437066000000044
20
76.562899999999999
0
LWPOLYLINE
5
101
100
AcDbEntity
8
0
100
AcDbPolyline
90
12
70
1
43
0.0
10
16.619200000000003
20
59.787700000000008
10
16.619200000000003
20
60.388500000000001
10
17.418399999999998
20
60.388500000000001
10
17.418399999999998
20
73.187600000000003
10
16.619200000000003
20
73.187600000000003
10
16.619200000000003
20
73.788399999999996
10
2.6182700000000025
20
73.788399999999996
10
2.6182700000000025
20
73.187600000000003
10
1.8190099999999987
20
73.187600000000003
10
1.8190099999999987
20
60.388500000000001
10
2.6182700000000025
20
60.388500000000001
10
2.6182700000000025
20
59.787700000000008
0
LWPOLYLINE
5
102
100
AcDbEntity
8
0
100
AcDbPolyline
90
12
70
1
43
0.0
10
16.619200000000003
20
21.687600000000003
10
16.619200000000003
20
22.288399999999999
10
17.418399999999998
20
22.288399999999999
10
17.418399999999998
20
35.087600000000009
10
16.619200000000003
20
35.087600000000009
10
16.619200000000003
20
35.688400000000001
10
2.6182700000000025
20
35.688400000000001
10
2.6182700000000025
20
35.087600000000009
10
1.8190099999999987
20
35.087600000000009
10
1.8190099999999987
20
22.288399999999999
10
2.6182700000000025
20
22.288399999999999
10
2.6182700000000025
20
21.687600000000003
0
LWPOLYLINE
5
103
100
AcDbEntity
8
0
100
AcDbPolyline
90
12
70
1
43
0.0
10
35.669000000000004
20
59.787700000000008
10
35.669000000000004
20
60.388500000000001
10
36.468400000000003
20
60.388500000000001
10
36.468400000000003
20
73.187600000000003
10
35.669000000000004
20
73.187600000000003
10
35.669000000000004
20
73.788399999999996
10
21.668300000000002
20
73.788399999999996
10
21.668300000000002
20
73.187600000000003
10
20.869
20
73.187600000000003
10
20.869
20
60.388500000000001
10
21.668300000000002
20
60.388500000000001
10
21.668300000000002
20
59.787700000000008
0
LWPOLYLINE
5
104
100
AcDbEntity
8
0
100
AcDbPolyline
90
12
70
1
43
0.0
10
35.669000000000004
20
40.737699999999997
10
35.669000000000004
20
41.33850000000001
10
36.468400000000003
20
41.33850000000001
10
36.468400000000003
20
54.137599999999999
10
35.669000000000004
20
54.137599999999999
10
35.669000000000004
20
54.738399999999999
10
21.668300000000002
20
54.738399999999999
10
21.668300000000002
20
54.137599999999999
10
20.869
20
54.137599999999999
10
20.869
20
41.33850000000001
10
21.668300000000002
20
41.33850000000001
10
21.668300000000002
20
40.737699999999997
0
LWPOLYLINE
5
105
100
AcDbEntity
8
0
100
AcDbPolyline
90
12
70
1
43
0.0
10
35.669000000000004
20
21.687600000000003
10
35.669000000000004
20
22.288399999999999
10
36.468400000000003
20
22.288399999999999
10
36.468400000000003
20
35.087600000000009
10
35.669000000000004
20
35.087600000000009
10
35.669000000000004
20
35.688400000000001
10
21.668300000000002
20
35.688400000000001
10
21.668300000000002
20
35.087600000000009
10
20.869
20
35.087600000000009
10
20.869
20
22.288399999999999
10
21.668300000000002
20
22.288399999999999
10
21.668300000000002
20
21.687600000000003
0
LWPOLYLINE
5
106
100
AcDbEntity
8
0
100
AcDbPolyline
90
12
70
1
43
0.0
10
54.718999999999994
20
59.787700000000008
10
54.718999999999994
20
60.388500000000001
10
55.5184
20
60.388500000000001
10
55.5184
20
73.187600000000003
10
54.718999999999994
20
73.187600000000003
10
54.718999999999994
20
73.788399999999996
10
40.718299999999999
20
73.788399999999996
10
40.718299999999999
20
73.187600000000003
10
39.918900000000001
20
73.187600000000003
10
39.918900000000001
20
60.388500000000001
10
40.718299999999999
20
60.388500000000001
10
40.718299999999999
20
59.787700000000008
0
LWPOLYLINE
5
107
100
AcDbEntity
8
0
100
AcDbPolyline
90
12
70
1
43
0.0
10
54.718999999999994
20
40.737699999999997
10
54.718999999999994
20
41.33850000000001
10
55.5184
20
41.33850000000001
10
55.5184
20
54.137599999999999
10
54.718999999999994
20
54.137599999999999
10
54.718999999999994
20
54.738399999999999
10
40.718299999999999
20
54.738399999999999
10
40.718299999999999
20
54.137599999999999
10
39.918900000000001
20
54.137599999999999
10
39.918900000000001
20
41.33850000000001
10
40.718299999999999
20
41.33850000000001
10
40.718299999999999
20
40.737699999999997
0
LWPOLYLINE
5
108
100
AcDbEntity
8
0
100
AcDbPolyline
90
12
70
1
43
0.0
10
54.718999999999994
20
21.687600000000003
10
54.718999999999994
20
22.288399999999999
10
55.5184
20
22.288399999999999
10
55.5184
20
35.087600000000009
10
54.718999999999994
20
35.087600000000009
10
54.718999999999994
20
35.688400000000001
10
40.718299999999999
20
35.688400000000001
10
40.718299999999999
20
35.087600000000009
10
39.918900000000001
20
35.087600000000009
10
39.918900000000001
20
22.288399999999999
10
40.718299999999999
20
22.288399999999999
10
40.718299999999999
20
21.687600000000003
0
LWPOLYLINE
5
109
100
AcDbEntity
8
0
100
AcDbPolyline
90
12
70
1
43
0.0
10
54.718999999999994
20
2.6375599999999997
10
54.718999999999994
20
3.2383899999999999
10
55.5184
20
3.2383899999999999
10
55.5184
20
16.037600000000005
10
54.718999999999994
20
16.037600000000005
10
54.718999999999994
20
16.638400000000001
10
40.718299999999999
20
16.638400000000001
10
40.718299999999999
20
16.037600000000005
10
39.918900000000001
20
16.037600000000005
10
39.918900000000001
20
3.2383899999999999
10
40.718299999999999
20
3.2383899999999999
10
40.718299999999999
20
2.6375599999999997
0
LWPOLYLINE
5
110
100
AcDbEntity
8
0
100
AcDbPolyline
90
22
70
1
43
0.0
10
4.8812066000000005
20
17.388400000000001
10
4.8812066000000005
20
19.1629
42
3.2290723788288256
10
3.4438299999999966
20
17.064771498269842
10
3.4438299999999966
20
16.638400000000001
10
2.6177066000000009
20
16.638400000000001
10
2.6177066000000009
20
16.037400000000002
10
1.8187066000000007
20
16.037400000000002
10
1.8187066000000007
20
3.238560000000001
10
2.6177066000000009
20
3.238560000000001
10
2.6177066000000027
20
2.637560000000001
10
35.6687066
20
2.637560000000001
10
35.6687066
20
3.238560000000001
10
36.4677066
20
3.2385600000000014
10
36.4677066
20
16.037400000000002
10
35.6687066
20
16.037400000000002
10
35.6687066
20
16.638400000000001
10
34.843599999999995
20
16.638400000000001
10
34.843599999999995
20
17.388400000000001
10
27.343200000000003
20
17.388400000000001
10
27.343200000000003
20
16.638400000000001
10
10.944240000000001
20
16.638400000000001
10
10.944240000000001
20
17.388400000000001
0
LWPOLYLINE
5
111
100
AcDbEntity
8
0
100
AcDbPolyline
90
15
70
1
43
0.0
10
3.6352847303646731
20
54.738399999999999
10
3.6352847303646731
20
55.069364028599594
42
8.5019694415405187
10
2.6182711340751172
20
54.832937183924741
10
2.6182700000000025
20
54.738399999999999
10
2.6182700000000025
20
54.137599999999999
10
1.8190099999999987
20
54.137599999999999
10
1.8190099999999987
20
41.33850000000001
10
2.6182700000000025
20
41.33850000000001
10
2.6182700000000025
20
40.737699999999997
10
16.619200000000003
20
40.737699999999997
10
16.619200000000003
20
41.33850000000001
10
17.418399999999998
20
41.33850000000001
10
17.418399999999998
20
54.137599999999999
10
16.619200000000003
20
54.137599999999999
10
16.619200000000003
20
54.738399999999999
0
LWPOLYLINE
5
112
100
AcDbEntity
8
0
100
AcDbPolyline
90
40
70
1
43
0.0
10
59.018300000000004
20
27.362400000000001
10
59.768300000000004
20
27.362400000000001
10
59.768300000000004
20
10.963539999999998
10
59.018300000000004
20
10.963539999999998
10
59.018300000000004
20
3.4631300000000005
10
59.768300000000004
20
3.4631300000000005
10
59.768300000000004
20
2.6379000000000001
10
60.36930000000001
20
2.6379000000000001
10
60.36930000000001
20
1.8389000000000002
10
73.167999999999992
20
1.8389000000000002
10
73.167999999999992
20
2.6379000000000001
10
73.768999999999991
20
2.6379000000000019
10
73.768999999999991
20
35.935500996934962
42
0.89935080745252061
10
73.768999999999991
20
40.410299003065042
10
73.768999999999991
20
73.788899999999998
10
73.167999999999992
20
73.788899999999998
10
73.167999999999992
20
74.587900000000005
10
60.36930000000001
20
74.587900000000005
10
60.36930000000001
20
73.788899999999998
10
59.768300000000004
20
73.788899999999998
10
59.768300000000004
20
72.962799999999987
10
59.018300000000004
20
72.962799999999987
10
59.018300000000004
20
65.462600000000009
10
59.768300000000004
20
65.462600000000009
10
59.768300000000004
20
49.063500000000005
10
59.018300000000004
20
49.063500000000005
10
59.018300000000004
20
41.563300000000005
10
59.768300000000004
20
41.563300000000005
10
59.768300000000004
20
40.737899999999996
10
60.36930000000001
20
40.737899999999996
10
60.36930000000001
20
39.938899999999997
10
71.282092734951135
20
39.938899999999997
10
71.282092734951135
20
38.236041286373585
42
0.01403416056304794
10
71.282092734951135
20
38.109758713626526
10
71.282092734951135
20
36.487899999999996
10
60.36930000000001
20
36.487899999999996
10
60.36930000000001
20
35.688900000000004
10
59.768300000000004
20
35.688900000000004
10
59.768300000000004
20
34.862900000000003
10
59.018300000000004
20
34.862900000000003
0
CIRCLE
5
113
100
AcDbEntity
8
0
100
AcDbCircle
10
57.191206600000001
20
19.052900000000001
30
0
40
2.2499999999999964
0
CIRCLE
5
114
100
AcDbEntity
8
0
100
AcDbCircle
10
38.141206600000004
20
38.102899999999998
30
0
40
2.2500000000000053
0
ENDSEC
0
SECTION
2
OBJECTS
0
DICTIONARY
5
C
100
AcDbDictionary
3
ACAD_GROUP
350
D
3
ACAD_MLINESTYLE
350
17
0
DICTIONARY
5
D
100
AcDbDictionary
0
DICTIONARY
5
1A
330
C
100
AcDbDictionary
0
DICTIONARY
5
17
100
AcDbDictionary
0
ENDSEC
0
EOF
